<svg width="51" height="51" viewBox="0 0 51 51" fill="none" xmlns="http://www.w3.org/2000/svg">
<circle cx="25.5" cy="25.5" r="23.5" fill="#55CC1D" stroke="#55CC1D" stroke-width="4"/>
<path d="M37.5791 34.2739C37.5791 34.2739 36.006 35.8018 35.6205 36.2497C34.9925 36.9124 34.2526 37.2254 33.2826 37.2254C33.1893 37.2254 33.0898 37.2254 32.9966 37.2192C31.1499 37.1026 29.4337 36.3909 28.1466 35.7834C24.6273 34.1021 21.5371 31.7151 18.9691 28.6899C16.8488 26.168 15.4311 23.8362 14.4923 21.3327C13.914 19.8048 13.7026 18.6143 13.7959 17.4914C13.858 16.7735 14.1378 16.1783 14.6539 15.669L16.7742 13.5765C17.0789 13.2943 17.4022 13.1409 17.7193 13.1409C18.111 13.1409 18.4282 13.374 18.6271 13.5704C18.6333 13.5765 18.6396 13.5827 18.6458 13.5888C19.0251 13.9386 19.3857 14.3006 19.765 14.6872C19.9577 14.8835 20.1567 15.0799 20.3557 15.2824L22.0532 16.9576C22.7122 17.608 22.7122 18.2094 22.0532 18.8598C21.8728 19.0377 21.6987 19.2157 21.5184 19.3875C20.9961 19.9152 21.4064 19.5103 20.8655 19.9889C20.853 20.0012 20.8406 20.0073 20.8344 20.0196C20.2996 20.5473 20.3991 21.0628 20.511 21.4125C20.5173 21.4309 20.5235 21.4493 20.5297 21.4677C20.9712 22.5232 21.593 23.5172 22.5381 24.7015L22.5443 24.7076C24.2604 26.7939 26.0698 28.42 28.0657 29.6657C28.3207 29.8252 28.5818 29.9541 28.8305 30.0768C29.0544 30.1873 29.2658 30.2916 29.4461 30.402C29.471 30.4143 29.4958 30.4327 29.5207 30.445C29.7321 30.5493 29.9311 30.5984 30.1363 30.5984C30.6524 30.5984 30.9757 30.2793 31.0814 30.175L32.3002 28.9722C32.5116 28.7636 32.8473 28.512 33.2391 28.512C33.6246 28.512 33.9417 28.7513 34.1344 28.9599C34.1407 28.9661 34.1407 28.9661 34.1469 28.9722L37.5729 32.3532C38.2133 32.9791 37.5791 34.2739 37.5791 34.2739Z" fill="white"/>
</svg>
