<svg width="25" height="26" viewBox="0 0 25 26" fill="none" xmlns="http://www.w3.org/2000/svg">
<path d="M2.42233 18.9679L1.60954 18.3854L1.60954 18.3854L2.42233 18.9679ZM3.91869 14.4712L2.91869 14.4596V14.4712H3.91869ZM3.9501 11.7524L4.9501 11.7639V11.7524H3.9501ZM22.7453 18.9897L23.5694 18.4233L23.5694 18.4233L22.7453 18.9897ZM21.3053 14.4712L20.3053 14.459V14.4712H21.3053ZM21.3367 11.8871L22.3367 11.8993V11.8871H21.3367ZM9.76002 23.0776C9.32294 22.74 8.69493 22.8206 8.35732 23.2577C8.01971 23.6948 8.10034 24.3228 8.53741 24.6604L9.76002 23.0776ZM16.6222 24.6604C17.0593 24.3228 17.14 23.6948 16.8023 23.2577C16.4647 22.8206 15.8367 22.74 15.3996 23.0776L16.6222 24.6604ZM0.665442 5.1412C0.464182 5.65551 0.717958 6.23559 1.23227 6.43685C1.74657 6.63811 2.32666 6.38434 2.52792 5.87003L0.665442 5.1412ZM5.94572 1.87553C6.42927 1.60869 6.60493 1.00038 6.33809 0.516836C6.07125 0.0332943 5.46294 -0.142374 4.9794 0.12447L5.94572 1.87553ZM20.1595 0.141891C19.6788 -0.130141 19.0686 0.0389706 18.7966 0.519613C18.5246 1.00026 18.6937 1.61042 19.1743 1.88245L20.1595 0.141891ZM22.625 5.84798C22.8208 6.36437 23.3982 6.62422 23.9146 6.42837C24.431 6.23252 24.6908 5.65513 24.495 5.13874L22.625 5.84798ZM3.23511 19.5505C4.08167 18.3694 4.91869 16.6116 4.91869 14.4712H2.91869C2.91869 16.0834 2.28585 17.4418 1.60954 18.3854L3.23511 19.5505ZM4.91863 14.4827L4.95003 11.7639L2.95017 11.7408L2.91876 14.4596L4.91863 14.4827ZM23.5694 18.4233C22.9212 17.4802 22.3053 16.1077 22.3053 14.4712H20.3053C20.3053 16.613 21.1085 18.3737 21.9212 19.5562L23.5694 18.4233ZM22.3052 14.4833L22.3366 11.8993L20.3368 11.875L20.3053 14.459L22.3052 14.4833ZM22.3367 11.8871C22.3367 6.26469 18.0224 1.6062 12.5798 1.6062V3.6062C16.8099 3.6062 20.3367 7.25814 20.3367 11.8871H22.3367ZM22.2213 21.2498C23.0456 21.2498 23.5387 20.6419 23.7305 20.1646C23.9253 19.6795 23.9626 18.9953 23.5694 18.4233L21.9212 19.5562C21.8797 19.4958 21.874 19.4473 21.8733 19.434C21.8727 19.4218 21.8743 19.4197 21.8746 19.4192C21.8753 19.4173 21.8782 19.4105 21.8858 19.3995C21.8934 19.3887 21.9083 19.37 21.934 19.3487C21.99 19.3021 22.0913 19.2498 22.2213 19.2498V21.2498ZM4.9501 11.7524C4.9501 7.19782 8.42002 3.6062 12.5798 3.6062V1.6062C7.20751 1.6062 2.9501 6.20437 2.9501 11.7524H4.9501ZM2.93964 19.2498C3.07268 19.2498 3.17522 19.3042 3.23046 19.3511C3.2557 19.3725 3.26994 19.3908 3.27682 19.4009C3.28378 19.4111 3.28605 19.4169 3.2863 19.4176C3.28661 19.4183 3.28639 19.4178 3.28629 19.4172C3.28618 19.4165 3.28678 19.4194 3.2863 19.4266C3.28551 19.4388 3.27939 19.4887 3.23511 19.5505L1.60954 18.3854C1.19855 18.9588 1.23222 19.6545 1.4227 20.1435C1.60969 20.6235 2.10195 21.2498 2.93964 21.2498V19.2498ZM22.2213 19.2498H2.93964V21.2498H22.2213V19.2498ZM12.5798 24C11.4767 24 10.4907 23.642 9.76002 23.0776L8.53741 24.6604C9.62786 25.5027 11.0466 26 12.5798 26V24ZM15.3996 23.0776C14.669 23.642 13.6829 24 12.5798 24V26C14.113 26 15.5318 25.5027 16.6222 24.6604L15.3996 23.0776ZM2.52792 5.87003C3.20175 4.14808 4.40098 2.728 5.94572 1.87553L4.9794 0.12447C2.99217 1.22113 1.49495 3.02143 0.665442 5.1412L2.52792 5.87003ZM19.1743 1.88245C20.756 2.77766 21.988 4.16855 22.625 5.84798L24.495 5.13874C23.6833 2.99846 22.1242 1.2539 20.1595 0.141891L19.1743 1.88245Z" fill="black"/>
</svg>
