<svg width="52" height="52" viewBox="0 0 52 52" fill="none" xmlns="http://www.w3.org/2000/svg">
<circle cx="26" cy="26.6191" r="19.1905" fill="#07297F"/>
<path fill-rule="evenodd" clip-rule="evenodd" d="M0 25.2193C0 10.7312 11.3555 0 26 0C40.6445 0 52 10.7377 52 25.2258C52 39.7139 40.6445 50.4451 26 50.4451C23.3675 50.4451 20.8455 50.0941 18.473 49.4441C18.0115 49.3206 17.5175 49.3531 17.082 49.5481L11.921 51.8231C11.6093 51.9606 11.2686 52.0194 10.9288 51.9944C10.5891 51.9694 10.2607 51.8613 9.97245 51.6796C9.68424 51.498 9.44506 51.2483 9.27593 50.9526C9.10681 50.6569 9.01291 50.3241 9.0025 49.9836L8.8595 45.3558C8.8465 44.7838 8.5865 44.2508 8.164 43.8738C3.107 39.3499 0 32.7981 0 25.2193ZM18.0245 20.4809L10.387 32.5966C9.65252 33.7601 11.0825 35.0665 12.1745 34.2346L20.3775 28.0077C20.6474 27.8027 20.9768 27.6912 21.3157 27.69C21.6546 27.6889 21.9847 27.7981 22.256 28.0012L28.3335 32.5576C28.7646 32.8813 29.2581 33.1122 29.7829 33.2356C30.3077 33.359 30.8524 33.3722 31.3825 33.2745C31.9127 33.1768 32.4168 32.9702 32.8631 32.6678C33.3094 32.3654 33.6882 31.9738 33.9755 31.5176L41.6195 19.4085C42.3475 18.245 40.9175 16.932 39.8255 17.764L31.6225 23.9908C31.3526 24.1958 31.0233 24.3074 30.6844 24.3085C30.3454 24.3097 30.0153 24.2005 29.744 23.9973L23.6665 19.441C23.2355 19.1172 22.7419 18.8864 22.2172 18.763C21.6924 18.6396 21.1477 18.6264 20.6175 18.7241C20.0874 18.8218 19.5832 19.0284 19.1369 19.3308C18.6906 19.6332 18.3118 20.0248 18.0245 20.4809Z" fill="#FEC465"/>
</svg>
