<svg width="49" height="46" viewBox="0 0 49 46" fill="none" xmlns="http://www.w3.org/2000/svg">
<rect width="49" height="46" rx="15" fill="white"/>
<path d="M8.77221 40.1336C8.57965 40.0493 8.44058 39.9544 8.66523 39.7646C8.80431 39.6592 8.95407 39.5643 9.10384 39.4694C10.5053 38.5732 11.8211 37.5927 12.6876 36.1483C13.415 34.9464 13.2974 34.24 12.3881 33.3544C7.31731 28.3569 5.09217 22.3789 6.20474 15.315C6.83591 11.3296 8.68663 7.88202 11.3825 4.88775C13.0085 3.07432 14.9448 1.60882 17.063 0.385813C17.1914 0.312011 17.3732 0.290924 17.3946 0.101147C17.3518 -0.00428503 17.277 0.0273445 17.2128 0.0273445C13.6076 0.0273445 10.0025 -0.0464578 6.408 0.0484309C2.96332 0.153863 -0.010669 2.77912 2.8772e-05 6.54303C0.0214243 17.5396 2.8772e-05 28.5361 2.8772e-05 39.5432C2.8772e-05 42.9592 2.64238 45.8164 6.09777 45.9429C9.01826 46.0589 11.9388 45.964 14.8699 45.9535C15.0839 45.964 15.2979 45.9745 15.5118 45.9745H30.9594C34.8106 45.9745 38.6618 45.9956 42.513 45.9745C46.0861 45.9745 48.9852 43.1279 48.9852 39.617V39.5537V33.386C48.9852 33.2384 49.0387 33.0802 48.9424 32.9221C48.7498 32.9326 48.6749 33.0908 48.568 33.1962C46.4926 35.2521 44.0428 36.9074 41.3577 38.0777C34.7785 40.9349 28.0817 41.1352 21.2886 38.8368C20.7002 38.6259 20.0584 38.6049 19.4486 38.7525C18.55 38.9739 17.6621 39.2375 16.7742 39.501C14.1639 40.3023 11.5001 40.6608 8.77221 40.1336ZM16.5281 22.3684C16.71 22.1364 16.8062 21.9993 16.9132 21.8623C18.3146 20.1121 19.716 18.3619 21.1175 16.6012C21.524 16.0952 21.9305 15.5785 22.1872 14.967C22.4868 14.2712 22.1658 13.6175 21.4384 13.3645C21.1175 13.2696 20.7751 13.2274 20.4328 13.2485C18.5286 13.238 16.6137 13.238 14.7095 13.2485C14.442 13.2485 14.1746 13.2801 13.9178 13.3434C13.3188 13.491 12.955 14.092 13.1048 14.6929C13.2118 15.0936 13.5327 15.4099 13.9392 15.5047C14.196 15.568 14.4634 15.5996 14.7309 15.5891C15.8862 15.5996 17.0523 15.5891 18.2077 15.5996C18.336 15.5996 18.4965 15.5153 18.5928 15.7051C18.4965 15.8316 18.4002 15.9581 18.3039 16.0741C16.6458 18.1405 14.9983 20.2175 13.3402 22.284C12.9337 22.8006 12.7197 23.37 13.0192 24.0025C13.3188 24.6351 13.9285 24.7511 14.549 24.7933C15.0411 24.8249 15.5439 24.8038 16.0467 24.8038C17.7797 24.8038 19.5021 24.8144 21.2351 24.7933C22.1551 24.7827 22.6472 24.2345 22.551 23.391C22.4761 22.7268 22.0161 22.3789 21.1602 22.3684C19.6519 22.3578 18.1435 22.3684 16.5281 22.3684ZM28.9375 16.8226C27.6003 15.6734 26.124 15.5996 24.6798 16.4431C22.9254 17.4552 22.2835 19.1105 22.4975 21.0294C22.7007 22.8217 23.4924 24.2872 25.3966 24.8882C26.584 25.2677 27.6859 25.1307 28.6594 24.3505C28.9161 24.1502 28.991 24.1923 29.1729 24.4137C29.5259 24.8565 30.1357 25.0252 30.6706 24.8249C31.2055 24.6668 31.5585 24.1818 31.5585 23.6335C31.5692 21.5249 31.5799 19.4163 31.5585 17.3076C31.5478 16.4642 30.7455 15.9265 29.911 16.0952C29.451 16.19 29.1943 16.4958 28.9375 16.8226ZM36.3511 20.7342C36.3083 23.37 38.5228 25.3626 41.3042 25.0885C43.8609 24.8355 45.5191 22.9482 45.4335 20.2808C45.3479 17.645 43.3581 15.8421 40.6302 15.9265C38.0734 16.0003 36.2655 18.0246 36.3511 20.7342ZM35.4097 18.6361C35.4097 16.9808 35.4204 15.336 35.4097 13.6808C35.4097 12.8373 34.8641 12.3102 34.0511 12.3207C33.2594 12.3312 32.7352 12.8584 32.7246 13.6702C32.7139 14.1658 32.7246 14.6507 32.7246 15.1463V23.5281C32.7246 24.1818 33.1311 24.7511 33.666 24.8882C34.4041 25.0885 35.1636 24.6562 35.3562 23.9287C35.3883 23.8022 35.4097 23.6757 35.399 23.5386C35.4204 21.9045 35.4097 20.2703 35.4097 18.6361Z" fill="#FDFEFE"/>
<path d="M15.0704 45.9608C12.1106 45.9608 9.13984 46.0557 6.17996 45.9502C2.67798 45.8131 0 42.9548 0 39.548C0 28.5472 0.0216841 17.5464 0 6.53503C0 2.76965 3.02493 0.143375 6.50522 0.0484497C10.1481 -0.0464758 13.8019 0.0273551 17.4557 0.0273551C17.5207 0.0273551 17.6075 -0.0042867 17.64 0.101186C17.6183 0.291037 17.4232 0.312132 17.3039 0.385963C15.1572 1.60945 13.1948 3.07552 11.5468 4.88965C8.82542 7.88508 6.93891 11.3235 6.29923 15.3209C5.17165 22.377 7.43764 28.3679 12.5659 33.3673C13.4767 34.2638 13.5959 34.9599 12.8695 36.1623C11.9913 37.6073 10.6577 38.5882 9.23742 39.4847C9.08563 39.5691 8.93384 39.6746 8.78205 39.7695C8.55437 39.9594 8.69532 40.0543 8.89047 40.1387C8.93384 40.2336 8.98805 40.318 9.0531 40.4024C10.2999 41.4782 11.4817 42.6278 12.7069 43.7247C13.2815 44.2416 13.8561 44.7795 14.4091 45.3174C14.6368 45.5178 15.0162 45.5811 15.0704 45.9608Z" fill="#0150C7"/>
<path d="M15.186 45.9598C15.1331 45.5989 14.7622 45.537 14.5397 45.3204C13.9994 44.7841 13.4378 44.2684 12.8762 43.763C11.679 42.6903 10.5241 41.5661 9.3056 40.5141C9.24203 40.4316 9.18905 40.3491 9.14667 40.2562C11.8485 40.7719 14.4867 40.4213 17.0826 39.6477C17.962 39.3899 18.8414 39.132 19.7315 38.9154C20.3354 38.7607 20.9711 38.7917 21.5539 38.998C28.2713 41.2464 34.9041 41.0401 41.4308 38.2554C44.0903 37.1105 46.5166 35.5015 48.5721 33.4903C48.6781 33.3872 48.7522 33.2325 48.9429 33.2222C49.0383 33.3666 48.9853 33.5213 48.9853 33.676V39.7096C49.0065 43.1545 46.167 45.9598 42.6281 45.9908H42.5751C38.7608 46.0114 34.9464 45.9908 31.1321 45.9908H15.8218C15.6099 45.9702 15.3979 45.9598 15.186 45.9598Z" fill="#0150C7"/>
<path d="M16.5033 22.4869C18.0291 22.4869 19.4639 22.4764 20.8886 22.4869C21.6868 22.4973 22.1213 22.8435 22.2021 23.5043C22.293 24.3329 21.8282 24.8888 20.9593 24.8993C19.3224 24.9203 17.6956 24.9098 16.0587 24.9098C15.5838 24.9098 15.119 24.9308 14.6441 24.8993C14.0581 24.8678 13.4822 24.742 13.1992 24.1126C12.9163 23.4833 13.1184 22.9169 13.5024 22.4029C15.0584 20.3471 16.6246 18.2808 18.1907 16.225C18.2817 16.0991 18.3726 15.9733 18.4635 15.8579C18.3625 15.6796 18.221 15.7635 18.0998 15.753C17.0085 15.7425 15.9072 15.753 14.8159 15.7425C14.5633 15.7425 14.3107 15.7111 14.0682 15.6586C13.4923 15.5223 13.1386 14.9244 13.27 14.337C13.3609 13.9384 13.664 13.6133 14.048 13.5189C14.2905 13.456 14.5431 13.4245 14.7957 13.4245C16.5943 13.414 18.4029 13.414 20.2015 13.4245C20.5248 13.414 20.838 13.456 21.1513 13.5399C21.8384 13.7811 22.1314 14.4419 21.8586 15.1342C21.6161 15.732 21.2321 16.246 20.8481 16.7599C19.5245 18.5116 18.2008 20.2527 16.8772 21.9834C16.766 22.1197 16.665 22.2561 16.5033 22.4869Z" fill="#0150C7"/>
<path d="M28.8526 16.6288C29.1151 16.302 29.3886 15.9964 29.8371 15.9121C30.7012 15.7435 31.5106 16.281 31.5215 17.1241C31.5543 19.2319 31.5434 21.3398 31.5215 23.4476C31.5215 23.9956 31.1496 24.4804 30.6137 24.6385C30.0668 24.8388 29.4433 24.6807 29.0823 24.2275C28.8964 24.0062 28.8198 23.964 28.5573 24.1643C27.5619 24.9442 26.4353 25.0812 25.2212 24.7018C23.2742 24.0905 22.4757 22.6255 22.257 20.8444C22.0273 18.9158 22.6945 17.2716 24.4883 16.2599C25.9759 15.4062 27.4854 15.48 28.8526 16.6288ZM24.9805 20.4756C25.0024 20.9393 25.1556 21.3819 25.4399 21.7508C26.0306 22.5096 27.1572 22.6677 27.9557 22.0986C28.087 22.0037 28.2073 21.8878 28.3167 21.7508C28.9292 20.9498 28.9292 19.6324 28.3167 18.8314C28.0104 18.4204 27.5291 18.178 27.015 18.1675C25.8118 18.0937 24.9696 18.9895 24.9805 20.4756ZM36.4327 20.5388C36.3452 17.8302 38.1937 15.8067 40.8189 15.7329C43.6081 15.6486 45.6426 17.4508 45.7301 20.0856C45.8176 22.752 44.1222 24.6385 41.508 24.8915C38.6531 25.1655 36.389 23.1736 36.4327 20.5388ZM39.1782 20.2859C39.1563 20.8128 39.3204 21.3292 39.6485 21.7613C40.2501 22.5202 41.3767 22.6677 42.1643 22.0775C42.2846 21.9932 42.383 21.8878 42.4815 21.7824C43.1159 20.9814 43.1159 19.6324 42.4924 18.8314C42.1861 18.431 41.7049 18.178 41.1908 18.1675C40.0095 18.1042 39.1782 18.9685 39.1782 20.2859ZM35.4702 18.4415C35.4702 20.0751 35.4811 21.7086 35.4702 23.3422C35.4811 24.0905 34.8686 24.7123 34.092 24.7334C33.9607 24.7334 33.8185 24.7228 33.6873 24.6912C33.1404 24.5542 32.7247 23.9956 32.7247 23.3317V14.953C32.7247 14.4577 32.7138 13.9729 32.7247 13.4775C32.7356 12.666 33.2716 12.1391 34.081 12.1391C34.9123 12.1285 35.4702 12.6555 35.4702 13.4986C35.4811 15.1427 35.4702 16.7974 35.4702 18.4415Z" fill="#0150C7"/>
<path d="M25.4801 20.3111C25.4698 18.7608 26.2656 17.8262 27.3921 17.8922C27.8778 17.9142 28.3325 18.1671 28.6219 18.5959C29.2006 19.4205 29.2006 20.8059 28.6219 21.6415C28.0638 22.4331 26.9993 22.598 26.2449 22.0043C26.1209 21.9054 26.0072 21.7844 25.9038 21.6415C25.6455 21.2566 25.5008 20.7949 25.4801 20.3111ZM38.8947 20.1132C38.8947 18.7498 39.6801 17.8372 40.7963 17.9032C41.282 17.9142 41.7368 18.1781 42.0261 18.5959C42.6152 19.4315 42.6152 20.8498 42.0158 21.6745C41.4371 22.4551 40.3622 22.587 39.6285 21.9713C39.5148 21.8834 39.4218 21.7734 39.3391 21.6525C39.0291 21.2017 38.8844 20.6629 38.8947 20.1132Z" fill="#FDFEFE"/>
</svg>
