<svg width="113" height="38" viewBox="0 0 113 38" fill="none" xmlns="http://www.w3.org/2000/svg">
<path d="M39.6581 14.4043H34.3579C34.3579 13.8431 34.1708 13.469 33.7967 13.2819C33.4226 13.0325 32.9237 12.9701 32.3625 12.9701C31.1778 12.9701 30.5542 13.2819 30.4295 13.9678C30.3048 14.5914 30.9907 15.0902 32.4872 15.5267C34.8567 16.2126 36.2909 16.6491 36.7274 16.8362C38.2863 17.5844 39.0969 18.7692 39.0969 20.2034C39.0969 20.5151 39.0346 20.7646 38.9722 21.0763C38.6604 23.0094 37.6627 24.4435 35.9791 25.5036C34.4203 26.4389 32.4249 26.9378 29.993 26.9378C27.9976 26.9378 26.3764 26.4389 25.1293 25.4412C24.0069 24.5059 23.3833 23.3211 23.3833 21.887C23.3833 21.6375 23.3833 21.4505 23.4457 21.2011H28.8082C28.8082 21.7623 29.0577 22.1987 29.4942 22.5105C29.9306 22.8223 30.4295 22.947 31.053 22.947C32.6119 22.947 33.4226 22.5105 33.6096 21.6999C33.7343 21.0763 33.0484 20.5775 31.5519 20.141C29.2447 19.5175 27.8106 19.081 27.3117 18.8315C25.7528 18.0833 25.0045 16.8985 25.0045 15.3396C25.0045 15.0278 25.0669 14.7161 25.1293 14.3419C25.441 12.596 26.3764 11.2242 27.9353 10.2888C29.4318 9.35348 31.2401 8.91699 33.4226 8.91699C35.6674 8.91699 37.351 9.41584 38.411 10.4759C39.284 11.5359 39.7205 12.783 39.6581 14.4043Z" fill="#ED1C24"/>
<path d="M42.7134 26.5011H37.2261L46.33 9.47803H52.0044L55.1221 26.5011H49.5725L49.3231 24.2563H43.7734L42.7134 26.5011ZM48.9489 20.702L48.263 14.5912L45.457 20.702H48.9489Z" fill="#ED1C24"/>
<path d="M65.5982 9.0415C68.0924 9.0415 70.0255 9.72742 71.3349 11.1616C72.5197 12.4711 73.1433 14.0923 73.1433 16.15C73.1433 16.7112 73.0809 17.3348 72.9562 17.9584C72.4573 20.7644 71.2102 23.0092 69.2148 24.6304C67.2818 26.1893 65.037 26.9999 62.4181 26.9999C60.0486 26.9999 58.2403 26.3764 56.8684 25.1916C55.559 23.9445 54.873 22.1985 54.873 20.0161C54.873 19.3302 54.9354 18.6443 55.0601 17.8337C55.4966 15.1524 56.7437 13.0323 58.6767 11.411C60.6098 9.85213 62.9169 9.0415 65.5982 9.0415ZM64.7876 13.2193C63.6652 13.2193 62.6675 13.7805 61.9192 14.7782C61.2957 15.5888 60.8592 16.6489 60.6721 17.896C60.5474 18.4572 60.5474 19.0184 60.5474 19.5173C60.5474 21.6997 61.4204 22.8221 63.1664 22.8221C65.4112 22.8221 66.783 21.2009 67.4065 17.896C67.5312 17.3972 67.5312 16.9607 67.5312 16.5242C67.5312 14.2794 66.5959 13.157 64.7876 13.2193Z" fill="#ED1C24"/>
<path d="M83.2447 17.1476C83.2447 15.2146 82.1223 14.2792 80.3139 14.2792C79.1915 14.2792 77.6327 14.7157 77.6327 16.2122C77.6327 17.2723 78.7551 17.7088 79.5657 18.0829L82.1846 19.2053C83.4317 19.7042 84.4918 20.8266 84.4918 22.2607C84.4918 25.5032 81.8728 26.7503 79.1915 26.7503C75.762 26.7503 73.7666 25.2538 73.7666 21.5748H75.949C75.949 23.882 76.6973 24.8797 79.441 24.8797C80.9375 24.8797 82.3093 24.1938 82.3093 22.8219C82.3093 21.8243 81.6858 21.3878 80.9375 21.0136L78.5056 19.9536C76.822 19.2053 75.5126 18.3947 75.5126 16.2746C75.5126 14.9028 76.7597 12.3462 80.2516 12.3462C83.4941 12.3462 85.4271 13.8427 85.4271 17.0852H83.2447V17.1476Z" fill="#818285"/>
<path d="M87.3603 14.7158H85.4896L85.8637 12.8451H87.7344L88.6074 9.22852H90.7898L89.9792 12.8451H92.4111L92.0993 14.7158H89.5427L87.9215 22.5103C87.7968 23.2585 87.7344 23.5703 87.7344 23.8197C87.7344 24.3809 88.1709 24.6304 88.7944 24.6304C89.2933 24.6304 89.7921 24.568 90.1663 24.5057L89.7921 26.3763C89.3557 26.4387 88.9192 26.5634 88.2333 26.5634C86.5496 26.5634 85.4272 25.8775 85.4272 24.3809C85.4272 24.1315 85.4272 23.8197 85.4896 23.508L87.3603 14.7158Z" fill="#818285"/>
<path d="M101.203 22.7599C101.078 23.3834 101.016 23.7576 101.016 24.007C101.016 24.4435 101.328 24.8176 101.951 24.8176C102.138 24.8176 102.325 24.8176 102.513 24.7553L102.201 26.4389C101.764 26.5012 101.328 26.5636 100.954 26.5636C99.3324 26.5636 98.9583 25.5035 98.8959 24.88H98.8335C98.6465 25.3788 97.2746 26.813 94.6557 26.813C91.5379 26.813 90.4155 24.6305 90.4155 22.8846C90.4155 19.8292 92.5356 18.582 95.0922 18.395L98.2723 18.2079C100.081 18.0832 100.455 17.3349 100.455 16.2125C100.455 14.8407 99.3947 14.3419 97.5241 14.3419C95.6534 14.3419 94.4686 15.1525 94.2192 16.7737H91.9744C92.4109 13.7183 94.9051 12.4712 97.7735 12.4712C99.9559 12.4712 102.7 13.0324 102.7 15.7137C102.7 16.3996 102.575 17.0855 102.263 18.3326L101.203 22.7599ZM99.6442 19.5174C98.9583 19.8292 97.5241 19.8915 95.7158 20.0786C93.7827 20.2656 92.6603 21.2633 92.6603 22.6975C92.6603 24.1941 93.7204 24.88 95.0298 24.88C97.8982 24.88 99.1453 22.6975 99.6442 19.5174Z" fill="#818285"/>
<path d="M105.818 12.8453H107.938L107.376 15.5889C107.376 15.5889 108.312 14.4042 108.437 14.2171C108.998 13.5935 110.058 12.6582 111.554 12.6582L112.178 12.7206L111.741 15.2148C111.492 15.2148 111.243 15.1524 110.993 15.1524C108.374 15.1524 106.94 18.0208 106.691 19.5797L105.194 26.4388H102.949L105.818 12.8453Z" fill="#818285"/>
<path d="M2.24463 8.66744L6.9213 11.7229H6.98366H13.9051V11.2864V10.9746L17.8335 13.2818L13.9051 15.5266V15.2148V14.7783H11.0991H5.17535V15.2148H10.8497L5.7989 25.0046L15.464 17.3349L21.2008 21.1386L20.2654 13.6559L26.6257 8.66744H19.6419L18.6442 0L14.2169 8.66744" fill="#ED1C24"/>
<path d="M13.9053 13.9053H9.29102V14.3418H13.9053V13.9053Z" fill="#ED1C24"/>
<path d="M2.30715 11.2866H1.68359V11.7231H2.30715V11.2866Z" fill="#ED1C24"/>
<path d="M4.67678 11.2866H4.05322V11.7231H4.67678V11.2866Z" fill="#ED1C24"/>
<path d="M5.92385 11.2866H5.30029V11.7231H5.92385V11.2866Z" fill="#ED1C24"/>
<path d="M3.86614 12.1592H2.99316V12.5957H3.86614V12.1592Z" fill="#ED1C24"/>
<path d="M5.1133 12.1592H4.48975V12.5957H5.1133V12.1592Z" fill="#ED1C24"/>
<path d="M13.9056 12.1592H5.79932V12.5957H13.9056V12.1592Z" fill="#ED1C24"/>
<path d="M0.623557 13.0322H0V13.4687H0.623557V13.0322Z" fill="#ED1C24"/>
<path d="M2.30726 13.0322H1.30957V13.4687H2.30726V13.0322Z" fill="#ED1C24"/>
<path d="M13.9054 13.0322H2.99316V13.4687H13.9054V13.0322Z" fill="#ED1C24"/>
<path d="M7.91897 13.9053H7.29541V14.3418H7.91897V13.9053Z" fill="#ED1C24"/>
<path d="M6.60989 13.9053H5.98633V14.3418H6.60989V13.9053Z" fill="#ED1C24"/>
<path d="M5.1133 13.9053H4.48975V14.3418H5.1133V13.9053Z" fill="#ED1C24"/>
<path d="M4.55178 14.7783H3.92822V15.2148H4.55178V14.7783Z" fill="#ED1C24"/>
<path d="M2.80617 14.7783H2.18262V15.2148H2.80617V14.7783Z" fill="#ED1C24"/>
<path d="M1.74612 14.7783H1.12256V15.2148H1.74612V14.7783Z" fill="#ED1C24"/>
<path d="M22 31.9905L22.12 31.2726H25.8917L25.7717 31.9905H24.3105L23.6458 35.9999H22.7963L23.4611 31.9905H22Z" fill="#5D6470"/>
<path d="M27.9498 35.9999H27.0357L29.4847 31.2726H30.5419L31.4237 35.9999H30.5096L29.8748 32.2421H29.8379L27.9498 35.9999ZM28.2868 34.1464H30.7797L30.6643 34.8343H28.1714L28.2868 34.1464ZM29.06 37.2694C28.9277 37.2694 28.8169 37.2248 28.7276 37.1356C28.6399 37.0463 28.6022 36.9401 28.6145 36.817C28.6253 36.6908 28.6815 36.5831 28.783 36.4939C28.8861 36.4062 29.0039 36.3623 29.1362 36.3623C29.2701 36.3623 29.3801 36.4062 29.4663 36.4939C29.554 36.5831 29.5925 36.6908 29.5817 36.817C29.5709 36.9401 29.5147 37.0463 29.4132 37.1356C29.3116 37.2248 29.1939 37.2694 29.06 37.2694Z" fill="#5D6470"/>
<path d="M34.1263 35.9999L34.9111 31.2726H36.6838C37.047 31.2726 37.3409 31.3403 37.5656 31.4758C37.7903 31.6096 37.9464 31.7951 38.0342 32.032C38.1219 32.2675 38.1403 32.536 38.0896 32.8376C38.0403 33.1408 37.9318 33.4101 37.7641 33.6455C37.5979 33.8809 37.3786 34.0664 37.1062 34.2018C36.8339 34.3357 36.5153 34.4026 36.1506 34.4026H34.9757L35.0935 33.6986H36.1529C36.3653 33.6986 36.5453 33.6617 36.6931 33.5878C36.8423 33.5139 36.9601 33.4124 37.0462 33.2831C37.1324 33.1539 37.1893 33.0054 37.217 32.8376C37.2432 32.6699 37.2347 32.5222 37.1916 32.3944C37.1486 32.2667 37.0647 32.1675 36.9401 32.0967C36.8169 32.0244 36.6484 31.9882 36.4345 31.9882H35.6497L34.9827 35.9999H34.1263Z" fill="#5D6470"/>
<path d="M48.6364 32.8676H47.787C47.787 32.7261 47.7639 32.6006 47.7178 32.4914C47.6716 32.3806 47.607 32.2867 47.5239 32.2098C47.4408 32.1328 47.3423 32.0751 47.2284 32.0367C47.1146 31.9967 46.9884 31.9767 46.8499 31.9767C46.5852 31.9767 46.339 32.0436 46.1112 32.1775C45.8835 32.3113 45.6904 32.506 45.5319 32.7615C45.3734 33.0154 45.2633 33.3239 45.2018 33.6871C45.1449 34.041 45.1502 34.3372 45.2179 34.5757C45.2872 34.8142 45.4072 34.9943 45.578 35.1159C45.7488 35.2359 45.9566 35.2959 46.2013 35.2959C46.3505 35.2959 46.4936 35.2774 46.6306 35.2405C46.7675 35.202 46.8937 35.1459 47.0091 35.072C47.1261 34.9966 47.2284 34.905 47.3161 34.7973C47.4054 34.6896 47.4746 34.5673 47.5239 34.4303H48.3849C48.3141 34.655 48.2102 34.8666 48.0732 35.0651C47.9363 35.262 47.7716 35.4359 47.5793 35.5867C47.3869 35.736 47.1715 35.853 46.933 35.9376C46.6945 36.0222 46.4375 36.0645 46.162 36.0645C45.7388 36.0645 45.3764 35.9661 45.0748 35.7691C44.7748 35.5706 44.5593 35.2867 44.4285 34.9173C44.2977 34.5465 44.2746 34.1025 44.3593 33.5855C44.4439 33.0823 44.607 32.6537 44.8486 32.2998C45.0918 31.9459 45.388 31.6758 45.7373 31.4896C46.0882 31.3019 46.4659 31.208 46.8706 31.208C47.1384 31.208 47.3815 31.2449 47.6001 31.3188C47.8201 31.3927 48.0086 31.5012 48.1656 31.6443C48.3225 31.7858 48.4418 31.9597 48.5233 32.1659C48.6064 32.3706 48.6441 32.6045 48.6364 32.8676Z" fill="#5D6470"/>
<path d="M50.9859 35.9999L51.7707 31.2726H52.6271L52.2947 33.2739H54.4852L54.8176 31.2726H55.6763L54.8915 35.9999H54.0328L54.3652 33.9917H52.1747L51.8423 35.9999H50.9859Z" fill="#5D6470"/>
<path d="M59.544 31.2726L58.7592 35.9999H57.9029L58.6877 31.2726H59.544ZM58.8723 30.8064L59.5625 29.7515H60.3796L59.4955 30.8064H58.8723Z" fill="#5D6470"/>
<path d="M67.0838 35.9999H65.8628L65.9851 35.259H67.1277C67.4555 35.259 67.7409 35.1966 67.9841 35.072C68.2287 34.9458 68.428 34.7588 68.5819 34.5111C68.7373 34.2618 68.845 33.9525 68.905 33.5832C68.9651 33.2293 68.9612 32.9369 68.8935 32.7061C68.8258 32.4737 68.6942 32.3006 68.4988 32.1867C68.3049 32.0713 68.0479 32.0136 67.7278 32.0136H66.4999L66.6222 31.2726H67.8548C68.3241 31.2726 68.7135 31.3696 69.0228 31.5635C69.3321 31.7574 69.549 32.0344 69.6737 32.3944C69.7999 32.753 69.8214 33.1808 69.7383 33.6778C69.6583 34.1641 69.5006 34.5803 69.2651 34.9266C69.0297 35.2728 68.7273 35.5383 68.358 35.7229C67.9887 35.9076 67.564 35.9999 67.0838 35.9999ZM67.1 31.2726L66.3152 35.9999H65.4588L66.2436 31.2726H67.1ZM65.2096 33.7886L65.3019 33.2623H67.5132L67.4208 33.7886H65.2096Z" fill="#5D6470"/>
<path d="M73.89 31.2726L73.1052 35.9999H72.2488L73.0336 31.2726H73.89Z" fill="#5D6470"/>
<path d="M76.1125 35.9999L76.8973 31.2726H79.9719L79.8518 31.9905H77.6336L77.4213 33.2739H79.4802L79.3602 33.9917H77.3012L77.0889 35.282H79.3256L79.2055 35.9999H76.1125ZM78.9793 30.8479L78.6077 30.257L78.0422 30.8479H77.3105L77.3151 30.8156L78.3515 29.8184H79.0047L79.7157 30.8156L79.711 30.8479H78.9793ZM77.4559 37.2694C77.3236 37.2694 77.2128 37.2248 77.1235 37.1356C77.0358 37.0463 76.9981 36.9401 77.0104 36.817C77.0212 36.6908 77.0773 36.5831 77.1789 36.4939C77.282 36.4062 77.3997 36.3623 77.5321 36.3623C77.6659 36.3623 77.776 36.4062 77.8621 36.4939C77.9499 36.5831 77.9883 36.6908 77.9776 36.817C77.9668 36.9401 77.9106 37.0463 77.8091 37.1356C77.7075 37.2248 77.5898 37.2694 77.4559 37.2694Z" fill="#5D6470"/>
<path d="M86.8103 31.2726L86.0255 35.9999H85.2638L83.5718 32.7799H83.5349L82.9971 35.9999H82.1407L82.9255 31.2726H83.6919L85.3815 34.4949H85.4254L85.9586 31.2726H86.8103Z" fill="#5D6470"/>
<path d="M93.188 31.9905L93.308 31.2726H97.0796L96.9596 31.9905H95.4985L94.8337 35.9999H93.9843L94.6491 31.9905H93.188Z" fill="#5D6470"/>
<path d="M104.24 31.0649H104.843C104.79 31.3742 104.702 31.6373 104.579 31.8543C104.458 32.0713 104.285 32.2375 104.062 32.3529C103.841 32.4668 103.555 32.5237 103.206 32.5237L103.291 32.0251C103.521 32.0251 103.698 31.9874 103.822 31.912C103.947 31.8366 104.039 31.7274 104.099 31.5843C104.159 31.4411 104.206 31.268 104.24 31.0649ZM102.867 31.2726H103.723L103.211 34.3611C103.155 34.6996 103.026 34.9974 102.823 35.2544C102.621 35.5113 102.364 35.7122 102.052 35.8568C101.739 35.9999 101.392 36.0715 101.009 36.0715C100.622 36.0715 100.298 35.9999 100.034 35.8568C99.7713 35.7122 99.5813 35.5113 99.4643 35.2544C99.3489 34.9974 99.3189 34.6996 99.3743 34.3611L99.8867 31.2726H100.743L100.242 34.2895C100.21 34.4865 100.225 34.6619 100.286 34.8158C100.349 34.9681 100.452 35.0882 100.595 35.1759C100.74 35.2636 100.921 35.3074 101.138 35.3074C101.355 35.3074 101.55 35.2636 101.724 35.1759C101.898 35.0882 102.04 34.9681 102.151 34.8158C102.262 34.6619 102.333 34.4865 102.366 34.2895L102.867 31.2726ZM102.209 30.7741H101.572L101.611 30.3309C101.774 30.3247 101.893 30.3039 101.966 30.2686C102.04 30.2316 102.082 30.1808 102.091 30.1162C102.106 30.0331 102.071 29.9754 101.985 29.9431C101.899 29.9108 101.789 29.8946 101.655 29.8946L101.749 29.4814C102.13 29.4814 102.409 29.5368 102.587 29.6476C102.766 29.7584 102.84 29.9092 102.809 30.1001C102.784 30.2462 102.715 30.3555 102.601 30.4278C102.489 30.4986 102.369 30.5432 102.241 30.5617L102.209 30.7741Z" fill="#5D6470"/>
</svg>
