<svg width="169" height="42" viewBox="0 0 169 42" fill="none" xmlns="http://www.w3.org/2000/svg">
<path d="M2.25311 36.2896H3.32937V29.9929H5.34107V29.1078H0.241404V29.9929H2.25311V36.2896ZM7.55662 33.272H8.83405L10.2724 36.2896H11.4593L9.89019 33.1714C10.8759 32.9501 11.3084 32.3366 11.3084 31.1496C11.3084 30.4556 11.1475 29.9829 10.7955 29.6308C10.4233 29.2586 9.92037 29.1078 9.03522 29.1078H6.48036V36.2896H7.55662V33.272ZM7.5365 32.417V29.9728H8.93463C9.8399 29.9728 10.2422 30.345 10.2422 31.1999C10.2422 32.0348 9.86002 32.417 8.99499 32.417H7.5365ZM16.8028 34.7908L17.3058 36.2896H18.4725L15.8573 29.1078H14.8213L12.2061 36.2896H13.3729L13.8758 34.7908H16.8028ZM16.5413 33.9258H14.1373L15.3443 30.4154L16.5413 33.9258ZM19.1102 36.2896H20.1563V30.9183L23.3549 36.2896H24.401V29.1078H23.3549V34.479L20.1563 29.1078H19.1102V36.2896ZM28.6437 33.272H29.9915V33.8252C29.9915 34.9618 29.4986 35.515 28.4827 35.515C27.3864 35.515 26.974 34.9417 26.974 33.3927V32.0247C26.974 30.4858 27.3864 29.9024 28.4727 29.9024C29.2673 29.9024 29.74 30.2846 29.8406 31.0189L30.8364 30.9485C30.766 29.6912 29.9312 29.0273 28.4324 29.0273C27.5272 29.0273 26.9136 29.2687 26.461 29.7917C26.0486 30.2645 25.8977 30.8479 25.8977 31.9543V33.453C25.8977 34.479 26.0184 35.0322 26.3604 35.4949C26.803 36.1085 27.4668 36.3901 28.5029 36.3901C29.4282 36.3901 30.082 36.1286 30.5347 35.5855C30.9169 35.1228 31.0577 34.5897 31.0577 33.5939V32.4371H28.6437V33.272ZM35.5169 36.2896H36.5932V29.9929H38.6049V29.1078H33.5052V29.9929H35.5169V36.2896ZM39.7341 36.2896H40.8104V33.101H43.5664V36.2896H44.6427V29.1078H43.5664V32.2159H40.8104V29.1078H39.7341V36.2896ZM46.1483 33.5738C46.1483 34.5193 46.2891 35.0725 46.6412 35.5251C47.0938 36.1186 47.7476 36.3901 48.7434 36.3901C49.6587 36.3901 50.2623 36.1688 50.735 35.6458C51.1675 35.1831 51.3285 34.5997 51.3285 33.5738V31.8236C51.3285 30.8781 51.1876 30.3248 50.8356 29.8722C50.383 29.2788 49.7291 29.0072 48.7434 29.0072C47.818 29.0072 47.2145 29.2285 46.7418 29.7515C46.3093 30.2243 46.1483 30.7976 46.1483 31.8236V33.5738ZM50.2522 33.4732C50.2522 34.9115 49.7996 35.515 48.7434 35.515C47.6772 35.515 47.2246 34.9115 47.2246 33.4732V31.9242C47.2246 30.4858 47.6772 29.8823 48.7434 29.8823C49.7996 29.8823 50.2522 30.4858 50.2522 31.9242V33.4732ZM48.7334 27.5688L49.3771 28.3735H50.4031L49.0854 26.9452H48.3813L47.0737 28.3735H48.0997L48.7334 27.5688ZM52.8357 36.2896H53.8818V30.9183L57.0804 36.2896H58.1265V29.1078H57.0804V34.479L53.8818 29.1078H52.8357V36.2896ZM62.3692 33.272H63.717V33.8252C63.717 34.9618 63.2241 35.515 62.2082 35.515C61.1119 35.515 60.6995 34.9417 60.6995 33.3927V32.0247C60.6995 30.4858 61.1119 29.9024 62.1982 29.9024C62.9928 29.9024 63.4655 30.2846 63.5661 31.0189L64.5619 30.9485C64.4915 29.6912 63.6567 29.0273 62.1579 29.0273C61.2527 29.0273 60.6391 29.2687 60.1865 29.7917C59.7741 30.2645 59.6232 30.8479 59.6232 31.9543V33.453C59.6232 34.479 59.7439 35.0322 60.0859 35.4949C60.5285 36.1085 61.1923 36.3901 62.2284 36.3901C63.1537 36.3901 63.8075 36.1286 64.2602 35.5855C64.6424 35.1228 64.7832 34.5897 64.7832 33.5939V32.4371H62.3692V33.272ZM69.2424 36.2896H70.3187V29.9929H72.3304V29.1078H67.2307V29.9929H69.2424V36.2896ZM73.4596 36.2896H74.5359V29.1078H73.4596V36.2896ZM76.2139 36.2896H77.26V30.9183L80.4586 36.2896H81.5047V29.1078H80.4586V34.479L77.26 29.1078H76.2139V36.2896ZM84.9444 32.2259H84.1397V33.0909H84.9444V36.2896H87.3082C89.1187 36.3097 90.0139 35.3843 89.9636 33.5335V31.8638C90.0139 30.013 89.1187 29.0776 87.3082 29.1078H84.9444V32.2259ZM86.0207 32.2259V29.9728H87.117C88.3744 29.9426 88.8773 30.5059 88.8873 31.9543V33.4329C88.8773 34.8914 88.3744 35.4547 87.117 35.4245H86.0207V33.0909H87.5294V32.2259H86.0207ZM91.4805 36.2896H92.5567V29.1078H91.4805V36.2896ZM94.2448 36.2896H98.5801V35.4044H95.311V33.101H98.0671V32.2159H95.311V29.9929H98.5499V29.1078H94.2448V36.2896ZM96.4175 27.5688L97.0612 28.3735H98.0771L96.7695 26.9452H96.0654L94.7478 28.3735H95.7737L96.4175 27.5688ZM95.9447 38.3013H96.9405V37.1546H95.9447V38.3013ZM99.818 36.2896H100.864V30.9183L104.063 36.2896H105.109V29.1078H104.063V34.479L100.864 29.1078H99.818V36.2896ZM109.836 36.2896H110.912V29.9929H112.924V29.1078H107.824V29.9929H109.836V36.2896ZM113.846 29.1078V33.6341C113.846 34.5897 113.927 35.0322 114.188 35.4346C114.621 36.0884 115.305 36.3901 116.371 36.3901C117.367 36.3901 117.99 36.1387 118.443 35.5553C118.785 35.1328 118.886 34.6701 118.886 33.6341V31.2905C119.409 31.0189 119.59 30.9183 119.791 30.7775C120.354 30.3751 120.595 29.9728 120.595 29.4397C120.595 29.2788 120.585 29.1782 120.525 28.9971H119.62C119.73 29.2084 119.771 29.3492 119.771 29.5604C119.771 30.0332 119.539 30.3248 118.886 30.6266V29.1078H117.809V33.6341C117.809 34.2376 117.759 34.5796 117.638 34.8411C117.407 35.3139 117.025 35.515 116.371 35.515C115.747 35.515 115.395 35.3441 115.144 34.9317C114.983 34.65 114.922 34.3281 114.922 33.6341V29.1078H113.846ZM116.874 28.4942C116.884 28.1824 116.894 28.1321 117.055 27.9309C117.337 27.5889 117.377 27.5185 117.377 27.2872C117.377 26.8044 117.025 26.5227 116.421 26.5227C116.119 26.5227 115.918 26.563 115.566 26.6837L115.737 27.257C115.979 27.1464 116.109 27.1162 116.25 27.1162C116.431 27.1162 116.532 27.1967 116.532 27.3274C116.532 27.4079 116.502 27.4883 116.441 27.5789C116.19 27.9209 116.17 27.9812 116.16 28.3634V28.4942H116.874ZM124.11 36.2896H125.187V29.9929H127.198V29.1078H122.099V29.9929H124.11V36.2896ZM127.98 33.5738C127.98 34.5193 128.121 35.0725 128.473 35.5251C128.925 36.1186 129.579 36.3901 130.575 36.3901C131.49 36.3901 132.094 36.1688 132.567 35.6458C132.999 35.1831 133.16 34.5997 133.16 33.5738V31.8236C133.16 30.8781 133.019 30.3248 132.667 29.8722C132.214 29.2788 131.561 29.0072 130.575 29.0072C129.65 29.0072 129.046 29.2285 128.573 29.7515C128.141 30.2243 127.98 30.7976 127.98 31.8236V33.5738ZM132.084 33.4732C132.084 34.9115 131.631 35.515 130.575 35.515C129.509 35.515 129.056 34.9115 129.056 33.4732V31.9242C129.056 30.4858 129.509 29.8823 130.575 29.8823C131.631 29.8823 132.084 30.4858 132.084 31.9242V33.4732ZM130.877 27.3978C130.887 27.1866 130.887 27.1564 131.018 27.0357C131.239 26.8044 131.279 26.734 131.279 26.563C131.279 26.2009 130.977 25.9796 130.474 25.9796C130.203 25.9796 130.012 26.0198 129.75 26.1103L129.901 26.573C130.092 26.4825 130.203 26.4523 130.323 26.4523C130.474 26.4523 130.555 26.4926 130.555 26.573C130.555 26.6233 130.525 26.6937 130.484 26.744C130.263 27.0055 130.253 27.0458 130.243 27.3978H130.877ZM130.555 28.0919L131.178 28.635H132.154L130.887 27.5588H130.213L128.956 28.635H129.921L130.555 28.0919ZM134.667 36.2896H135.713V30.9183L138.912 36.2896H139.958V29.1078H138.912V34.479L135.713 29.1078H134.667V36.2896ZM144.201 33.272H145.549V33.8252C145.549 34.9618 145.056 35.515 144.04 35.515C142.943 35.515 142.531 34.9417 142.531 33.3927V32.0247C142.531 30.4858 142.943 29.9024 144.03 29.9024C144.824 29.9024 145.297 30.2846 145.398 31.0189L146.393 30.9485C146.323 29.6912 145.488 29.0273 143.989 29.0273C143.084 29.0273 142.471 29.2687 142.018 29.7917C141.606 30.2645 141.455 30.8479 141.455 31.9543V33.453C141.455 34.479 141.575 35.0322 141.917 35.4949C142.36 36.1085 143.024 36.3901 144.06 36.3901C144.985 36.3901 145.639 36.1286 146.092 35.5855C146.474 35.1228 146.615 34.5897 146.615 33.5939V32.4371H144.201V33.272ZM149.786 36.2896H150.863V33.101H153.619V36.2896H154.695V29.1078H153.619V32.2159H150.863V29.1078H149.786V36.2896ZM161.662 28.9971C161.773 29.1983 161.813 29.3492 161.813 29.5503C161.813 29.9225 161.652 30.1639 161.2 30.4657C160.838 29.4799 160.053 29.0072 158.786 29.0072C157.87 29.0072 157.267 29.2385 156.794 29.7515C156.362 30.2243 156.201 30.7976 156.201 31.8236V33.5738C156.201 34.5193 156.341 35.0725 156.694 35.5251C157.146 36.1186 157.8 36.3901 158.796 36.3901C159.711 36.3901 160.315 36.1688 160.787 35.6458C161.22 35.1831 161.381 34.5997 161.381 33.5738V31.8236C161.381 31.5319 161.371 31.3508 161.32 31.0692C161.713 30.8378 161.854 30.7574 162.045 30.5964C162.427 30.2846 162.638 29.8622 162.638 29.4196C162.638 29.2586 162.618 29.1681 162.568 28.9971H161.662ZM160.305 33.4732C160.305 34.9115 159.852 35.515 158.796 35.515C157.73 35.515 157.277 34.9115 157.277 33.4732V31.9242C157.277 30.4958 157.73 29.8923 158.796 29.8923C159.852 29.8923 160.305 30.4958 160.305 31.9242V33.4732ZM158.182 38.3013H159.178V37.1546H158.182V38.3013ZM164.289 33.5939H165.576C166.441 33.5939 166.954 33.453 167.336 33.1111C167.769 32.7188 167.96 32.1656 167.96 31.3408C167.96 30.5763 167.799 30.0734 167.427 29.6811C167.034 29.2687 166.521 29.1078 165.576 29.1078H163.212V36.2896H164.289V33.5939ZM164.268 32.7188V29.9728H165.576C166.491 29.9728 166.894 30.3852 166.894 31.3508C166.894 32.2963 166.491 32.7188 165.576 32.7188H164.268Z" fill="#525252"/>
<path fill-rule="evenodd" clip-rule="evenodd" d="M45.0569 16.9349H52.8135V22.0659H45.0569V16.9349Z" fill="#C32022"/>
<path fill-rule="evenodd" clip-rule="evenodd" d="M67.6942 1.40233H99.4486V7.07597H67.6942V1.40233ZM70.4211 9.37673H99.4486V14.5076H75.3955V22.0625H67.6942V12.107C67.6942 10.5987 68.9162 9.37673 70.4211 9.37673Z" fill="#C32022"/>
<path fill-rule="evenodd" clip-rule="evenodd" d="M101.803 1.40233H132.891V7.07597H101.803V1.40233ZM104.53 9.37673H132.891V14.5076H109.504V16.9349H132.891V22.0659H104.799C103.144 22.0659 101.803 20.7242 101.803 19.0692V12.107C101.803 10.5987 103.025 9.37673 104.53 9.37673Z" fill="#C32022"/>
<path d="M43.2483 1.40233L31.1285 22.0625H40.3914L48.9352 6.52992L57.479 22.0625H66.7419L55.1648 1.40233H43.2483Z" fill="#C32022"/>
<path fill-rule="evenodd" clip-rule="evenodd" d="M25.4715 13.895C25.4715 15.5731 24.113 16.9316 22.4349 16.9316H10.7379C9.05982 16.9316 7.70134 15.5731 7.70134 13.895V9.02381C7.70134 7.34569 9.05982 5.98721 10.7379 5.98721H22.4349C24.113 5.98721 25.4715 7.34569 25.4715 9.02381H33.1262C32.6534 4.43894 28.7744 0.859619 24.063 0.859619H9.1098C4.07877 0.859619 0 4.93839 0 9.96942V12.9527C0 17.9838 4.07877 22.0625 9.1098 22.0625H24.063C28.7778 22.0625 32.6534 18.4832 33.1262 13.895H25.4715Z" fill="#C32022"/>
<path fill-rule="evenodd" clip-rule="evenodd" d="M135.246 1.40234H167V7.07598H135.246V1.40234ZM137.973 9.37674H167V14.5077H142.947V22.0625H135.246V12.107C135.246 10.5987 136.464 9.37674 137.973 9.37674Z" fill="#344971"/>
</svg>
