<svg width="78" height="78" viewBox="0 0 78 78" fill="none" xmlns="http://www.w3.org/2000/svg">
<path d="M17.5079 13.1827C17.5079 12.4051 17.5024 11.6921 17.5086 10.98C17.5297 8.60022 19.4274 6.71652 21.8033 6.7134C24.1901 6.71028 26.1027 8.58072 26.1292 10.9488C26.137 11.6641 26.1308 12.3801 26.1308 13.139C29.0144 13.139 31.8528 13.139 34.7654 13.139C34.7654 12.4136 34.7607 11.7023 34.7661 10.9901C34.7856 8.60568 36.6779 6.71886 39.0507 6.7134C41.4687 6.70794 43.368 8.58618 43.3867 11.0065C43.3922 11.7007 43.3875 12.3941 43.3875 13.1359C46.2633 13.1359 49.1018 13.1359 52.0213 13.1359C52.0213 12.423 52.0166 11.7116 52.0221 11.0003C52.0408 8.58462 53.9456 6.70638 56.3643 6.7134C58.7355 6.72042 60.6231 8.60802 60.6434 10.9964C60.6497 11.6914 60.6442 12.3863 60.6442 13.1827C60.8876 13.1827 61.1005 13.1827 61.3142 13.1827C62.9093 13.1827 64.5052 13.1741 66.1003 13.1851C69.0378 13.2046 71.4222 15.5648 71.4254 18.4976C71.4363 27.7984 71.43 37.0983 71.4285 46.399C71.4285 47.2141 71.0471 47.6696 70.3771 47.6829C69.679 47.6969 69.2796 47.2297 69.2788 46.3795C69.2765 40.6512 69.278 34.9221 69.278 29.1938C69.278 28.9247 69.278 28.6556 69.278 28.3303C49.1618 28.3303 29.0667 28.3303 8.87404 28.3303C8.87404 28.5456 8.87404 28.7819 8.87404 29.0191C8.87404 39.7799 8.87326 50.5408 8.87482 61.3017C8.87482 63.6089 10.2039 64.9427 12.5065 64.9427C22.2581 64.9443 32.0096 64.9435 41.762 64.9435C41.9866 64.9435 42.2136 64.9279 42.4359 64.9521C42.9873 65.0114 43.3734 65.4443 43.3859 65.9926C43.3984 66.5683 43.0022 67.0261 42.4218 67.0885C42.244 67.108 42.063 67.0955 41.8829 67.0955C32.0416 67.0955 22.1996 67.0971 12.3583 67.0948C9.01522 67.094 6.72358 64.8109 6.72358 61.4795C6.72202 47.2594 6.72202 33.0392 6.72358 18.8182C6.72358 15.4744 9.00586 13.1874 12.3388 13.1835C14.0392 13.1819 15.7404 13.1827 17.5079 13.1827ZM26.1308 15.3605C26.1308 16.121 26.1354 16.8144 26.13 17.5078C26.1113 19.9274 24.212 21.8087 21.7979 21.8041C19.4259 21.7994 17.5289 19.9126 17.5086 17.5336C17.5024 16.8214 17.5079 16.1085 17.5079 15.4252C17.4002 15.3792 17.3612 15.348 17.3222 15.348C15.6382 15.3418 13.9534 15.3262 12.2694 15.3379C10.2726 15.3527 8.89276 16.7372 8.87716 18.7387C8.8639 20.4679 8.87404 22.1972 8.87404 23.9264C8.87404 24.6386 8.87404 25.3507 8.87404 26.0894C29.0339 26.0894 49.1236 26.0894 69.2203 26.0894C69.2429 25.9966 69.2718 25.9349 69.2718 25.8725C69.2741 23.4249 69.3038 20.9765 69.2632 18.5296C69.2359 16.869 68.0722 15.5102 66.4092 15.3956C64.5161 15.2653 62.6075 15.3652 60.6442 15.3652C60.6442 16.0718 60.6465 16.7403 60.6434 17.4088C60.6325 19.9024 58.7738 21.8025 56.3441 21.8048C53.9073 21.808 52.033 19.9126 52.0213 17.4322C52.0182 16.7458 52.0205 16.0594 52.0205 15.3878C49.0893 15.3878 46.2509 15.3878 43.3867 15.3878C43.3867 16.1358 43.3922 16.8308 43.3859 17.5258C43.3656 19.9102 41.4749 21.7978 39.1045 21.8048C36.6896 21.8119 34.7833 19.9305 34.7654 17.5172C34.7599 16.8066 34.7646 16.096 34.7646 15.3613C31.8614 15.3605 29.0394 15.3605 26.1308 15.3605ZM19.6599 14.2264C19.6599 15.2349 19.6544 16.2434 19.6614 17.2512C19.67 18.6536 20.592 19.6637 21.8392 19.6481C23.0708 19.6333 23.9709 18.649 23.9772 17.2801C23.9865 15.263 23.9865 13.2467 23.9772 11.2296C23.9709 9.8646 23.063 8.87712 21.833 8.86776C20.6006 8.8584 19.677 9.84354 19.663 11.2007C19.6513 12.2101 19.6599 13.2186 19.6599 14.2264ZM41.2355 14.2911C41.2355 13.2826 41.2409 12.274 41.2339 11.2663C41.2238 9.86148 40.3049 8.8545 39.0569 8.86854C37.8206 8.88258 36.9252 9.86148 36.9189 11.2335C36.9104 13.2506 36.9104 15.2669 36.9189 17.284C36.9244 18.6482 37.83 19.6372 39.06 19.6497C40.2862 19.6622 41.2183 18.6692 41.2339 17.3167C41.244 16.3082 41.2355 15.2996 41.2355 14.2911ZM54.1733 14.2279C54.1733 15.2365 54.1679 16.245 54.1749 17.2528C54.1842 18.6544 55.107 19.6645 56.3542 19.6481C57.5866 19.6318 58.4844 18.6482 58.4906 17.2785C58.5 15.2614 58.5 13.2451 58.4906 11.228C58.4844 9.86382 57.5741 8.87634 56.3448 8.86776C55.1124 8.85918 54.1905 9.84432 54.1764 11.2023C54.1647 12.2116 54.1733 13.2202 54.1733 14.2279Z" fill="black"/>
<path d="M43.3931 57.341C43.3829 49.6346 49.6596 43.3884 57.4261 43.3775C65.1176 43.3658 71.4224 49.6377 71.4294 57.3067C71.4364 65.0911 65.2183 71.4005 57.5321 71.4075C49.6409 71.4146 43.404 65.2089 43.3931 57.341ZM57.3652 69.2555C63.7737 69.3242 69.1908 64.0007 69.2735 57.5547C69.3569 51.0386 64.0397 45.581 57.5571 45.531C51.0059 45.4803 45.6332 50.7305 45.5506 57.263C45.4679 63.7947 50.7781 69.1853 57.3652 69.2555Z" fill="black"/>
<path d="M19.7011 33.6717C20.4203 33.6717 21.1394 33.6608 21.8578 33.674C23.0348 33.6959 23.9498 34.5937 23.9685 35.7644C23.9864 36.8876 23.9872 38.0108 23.9677 39.134C23.9482 40.2736 23.0458 41.1917 21.9124 41.2081C20.407 41.2299 18.9016 41.2315 17.3962 41.2073C16.2707 41.1893 15.3713 40.2588 15.3542 39.1192C15.337 38.0186 15.3401 36.9181 15.3526 35.8175C15.3667 34.5944 16.2605 33.6943 17.4766 33.674C18.2183 33.6616 18.9593 33.6717 19.7011 33.6717ZM17.5397 35.8549C17.5397 36.9586 17.5397 37.9828 17.5397 39.0202C18.9773 39.0202 20.3766 39.0202 21.7712 39.0202C21.7712 37.936 21.7712 36.8954 21.7712 35.8549C20.3384 35.8549 18.9547 35.8549 17.5397 35.8549Z" fill="black"/>
<path d="M32.5698 41.2143C31.8733 41.2143 31.1767 41.2213 30.4802 41.2128C29.2158 41.1979 28.3094 40.308 28.2954 39.0576C28.2837 37.9797 28.2837 36.9009 28.2954 35.823C28.3094 34.5711 29.2127 33.6819 30.481 33.6733C31.8967 33.6639 33.3116 33.6639 34.7273 33.6733C35.9901 33.6819 36.8988 34.5765 36.9136 35.8253C36.9261 36.9033 36.9261 37.982 36.9136 39.06C36.8988 40.3103 35.9924 41.1979 34.7273 41.2128C34.0081 41.2213 33.289 41.2143 32.5698 41.2143ZM34.7117 39.0373C34.7117 37.9297 34.7117 36.8892 34.7117 35.8573C33.2757 35.8573 31.892 35.8573 30.4856 35.8573C30.4856 36.9321 30.4856 37.9719 30.4856 39.0373C31.9091 39.0373 33.2929 39.0373 34.7117 39.0373Z" fill="black"/>
<path d="M45.5232 33.6726C46.2649 33.6726 47.0059 33.6609 47.7477 33.675C48.9232 33.6968 49.8358 34.5977 49.8545 35.7693C49.8724 36.8925 49.874 38.0157 49.8537 39.1389C49.8334 40.2761 48.9279 41.1926 47.7945 41.209C46.2891 41.23 44.7837 41.2316 43.2783 41.2082C42.1832 41.191 41.2667 40.2745 41.2433 39.1841C41.2183 38.0391 41.2222 36.8925 41.2417 35.7474C41.2612 34.6078 42.1637 33.7062 43.3002 33.6773C44.0396 33.6578 44.7814 33.6726 45.5232 33.6726ZM43.4226 35.8519C43.4226 36.9533 43.4226 37.9767 43.4226 39.0226C44.857 39.0226 46.2564 39.0226 47.6604 39.0226C47.6604 37.9416 47.6604 36.9018 47.6604 35.8519C46.2298 35.8519 44.8461 35.8519 43.4226 35.8519Z" fill="black"/>
<path d="M58.4564 41.2143C57.7598 41.2143 57.0633 41.2213 56.3667 41.2128C55.1024 41.1979 54.1944 40.3087 54.1804 39.06C54.1687 37.982 54.1687 36.9033 54.1804 35.8253C54.1944 34.5726 55.0969 33.6826 56.3636 33.6741C57.7793 33.6639 59.1942 33.6647 60.6099 33.6741C61.8735 33.6826 62.783 34.5765 62.7978 35.8245C62.8103 36.9025 62.8103 37.9812 62.7978 39.0592C62.783 40.3111 61.8782 41.1987 60.6131 41.2135C59.8947 41.2213 59.1755 41.2143 58.4564 41.2143ZM56.3823 35.8487C56.3823 36.9563 56.3823 37.9968 56.3823 39.0288C57.8183 39.0288 59.202 39.0288 60.6084 39.0288C60.6084 37.9539 60.6084 36.9142 60.6084 35.8487C59.1849 35.8487 57.8012 35.8487 56.3823 35.8487Z" fill="black"/>
<path d="M19.6443 50.9193C18.9251 50.9201 18.206 50.9294 17.4876 50.9177C16.2716 50.8975 15.3683 49.9966 15.3535 48.7805C15.3402 47.68 15.3379 46.5786 15.3543 45.4788C15.3722 44.3033 16.277 43.3946 17.454 43.3814C18.9368 43.365 20.4196 43.3627 21.9024 43.3829C23.0373 43.3985 23.9475 44.3111 23.9678 45.4468C23.9881 46.5919 23.9912 47.7385 23.9663 48.8835C23.9421 49.9802 23.0326 50.8819 21.9359 50.9138C21.1723 50.9365 20.4079 50.9185 19.6443 50.9193ZM21.7932 45.5786C20.3322 45.5786 18.9329 45.5786 17.5344 45.5786C17.5344 46.6535 17.5344 47.6768 17.5344 48.7298C18.9665 48.7298 20.3658 48.7298 21.7932 48.7298C21.7932 47.6683 21.7932 46.6441 21.7932 45.5786Z" fill="black"/>
<path d="M32.5869 50.9193C31.8678 50.9201 31.1486 50.9294 30.4302 50.9177C29.2142 50.8975 28.311 49.9966 28.2961 48.7805C28.2829 47.68 28.2805 46.5786 28.2969 45.4788C28.3149 44.3033 29.2197 43.3946 30.3967 43.3814C31.8795 43.365 33.3622 43.3627 34.845 43.3829C35.9799 43.3985 36.8902 44.3111 36.9105 45.4468C36.9307 46.5919 36.9339 47.7385 36.9089 48.8835C36.8847 49.9802 35.9752 50.8819 34.8786 50.9138C34.1149 50.9365 33.3505 50.9185 32.5869 50.9193ZM34.7358 45.5779C33.2764 45.5779 31.8771 45.5779 30.5012 45.5779C30.5012 46.6683 30.5012 47.7088 30.5012 48.7306C31.9411 48.7306 33.3248 48.7306 34.7358 48.7306C34.7358 47.669 34.7358 46.6449 34.7358 45.5779Z" fill="black"/>
<path d="M19.6895 53.082C20.4087 53.082 21.1278 53.0719 21.8462 53.0844C23.0552 53.1054 23.9561 54.0118 23.9709 55.2301C23.9834 56.3081 23.9834 57.3868 23.9709 58.4648C23.9569 59.7198 23.0552 60.6129 21.79 60.6223C20.3743 60.6332 18.9594 60.6324 17.5437 60.6223C16.2513 60.6129 15.3613 59.7097 15.3519 58.4071C15.3441 57.351 15.341 56.2956 15.3527 55.2395C15.3667 53.9837 16.2653 53.0976 17.532 53.0828C18.2512 53.075 18.9703 53.082 19.6895 53.082ZM21.8072 55.2769C20.3455 55.2769 18.9462 55.2769 17.5523 55.2769C17.5523 56.3619 17.5523 57.4017 17.5523 58.4172C19.0023 58.4172 20.4024 58.4172 21.8072 58.4172C21.8072 57.3533 21.8072 56.3455 21.8072 55.2769Z" fill="black"/>
<path d="M32.6321 53.082C33.3513 53.082 34.0704 53.0719 34.7888 53.0844C35.9978 53.1054 36.8987 54.0118 36.9135 55.2301C36.926 56.3081 36.926 57.3868 36.9135 58.4648C36.8995 59.7198 35.9978 60.6129 34.7327 60.6223C33.317 60.6332 31.902 60.6324 30.4863 60.6223C29.1939 60.6129 28.3039 59.7097 28.2945 58.4071C28.2867 57.351 28.2836 56.2956 28.2953 55.2395C28.3094 53.9837 29.2079 53.0976 30.4746 53.0828C31.1938 53.075 31.913 53.082 32.6321 53.082ZM34.7093 58.4476C34.7093 57.3338 34.7093 56.2933 34.7093 55.2699C33.2702 55.2699 31.8864 55.2699 30.4887 55.2699C30.4887 56.3471 30.4887 57.3876 30.4887 58.4476C31.9153 58.4476 33.2982 58.4476 34.7093 58.4476Z" fill="black"/>
<path d="M43.41 45.5271C43.41 46.6433 43.41 47.6706 43.41 48.7111C43.5418 48.7548 43.6705 48.786 43.7891 48.8398C44.3343 49.0878 44.5699 49.5301 44.4349 50.0979C44.3078 50.6338 43.9225 50.913 43.3507 50.9208C42.2923 50.9349 41.2806 50.0355 41.2471 48.9638C41.2089 47.7532 41.2104 46.5396 41.2471 45.3282C41.2783 44.3025 42.1854 43.4079 43.2166 43.3868C44.7204 43.3556 46.225 43.365 47.7289 43.3837C48.3622 43.3915 48.7819 43.8556 48.778 44.4585C48.7741 45.0607 48.3521 45.5123 47.7141 45.5201C46.303 45.5396 44.8912 45.5271 43.41 45.5271Z" fill="black"/>
<path d="M55.316 61.3204C55.713 60.8726 56.0359 60.4709 56.3971 60.1075C58.6786 57.815 60.9679 55.5304 63.2556 53.2442C63.3984 53.1015 63.5341 52.9486 63.6924 52.8246C64.1776 52.4432 64.74 52.4713 65.1541 52.8847C65.5683 53.2981 65.6143 53.8706 65.2119 54.3425C64.8484 54.7684 64.4326 55.1498 64.0356 55.5468C61.4632 58.12 58.8907 60.6932 56.316 63.2649C55.4884 64.0917 55.0274 64.0956 54.217 63.2875C52.8496 61.9233 51.4831 60.5575 50.1204 59.1894C49.5097 58.5763 49.4387 57.9765 49.9044 57.482C50.388 56.968 51.0291 57.0241 51.6609 57.6536C52.8372 58.8251 54.0064 60.0053 55.316 61.3204Z" fill="black"/>
</svg>
