<svg width="78" height="78" viewBox="0 0 78 78" fill="none" xmlns="http://www.w3.org/2000/svg">
<path d="M67.1559 61.0057C67.1559 61.0057 63.3903 64.7042 62.4675 65.7885C60.9642 67.3927 59.193 68.1503 56.8711 68.1503C56.6478 68.1503 56.4097 68.1502 56.1864 68.1354C51.7659 67.8532 47.6579 66.1302 44.5769 64.6597C36.1525 60.5898 28.7552 54.8117 22.6081 47.4889C17.5326 41.3841 14.1391 35.7397 11.8916 29.6794C10.5074 25.9809 10.0013 23.0993 10.2246 20.3811C10.3734 18.6432 11.0432 17.2024 12.2786 15.9695L17.354 10.9045C18.0833 10.2212 18.8573 9.84985 19.6164 9.84985C20.5541 9.84985 21.3132 10.4143 21.7894 10.8896C21.8043 10.9045 21.8192 10.9193 21.8341 10.9342C22.742 11.7808 23.6053 12.6572 24.5132 13.593C24.9746 14.0683 25.4509 14.5436 25.9272 15.0338L29.9905 19.0888C31.5682 20.6633 31.5682 22.1189 29.9905 23.6934C29.5589 24.1242 29.1422 24.5549 28.7105 24.9708C27.4603 26.2482 28.4424 25.2681 27.1475 26.4267C27.1177 26.4564 27.088 26.4712 27.0731 26.5009C25.793 27.7783 26.0312 29.026 26.2991 29.8727C26.314 29.9173 26.3289 29.9618 26.3438 30.0064C27.4005 32.5612 28.8889 34.9675 31.1513 37.8342L31.1662 37.8491C35.2742 42.8993 39.6054 46.8355 44.3832 49.8508C44.9934 50.237 45.6186 50.5489 46.2139 50.846C46.7497 51.1134 47.2558 51.3659 47.6874 51.6332C47.747 51.6629 47.8065 51.7075 47.866 51.7372C48.3721 51.9897 48.8484 52.1086 49.3396 52.1086C50.5749 52.1086 51.3489 51.3362 51.6019 51.0836L54.5194 48.1722C55.0255 47.6671 55.8292 47.0581 56.7669 47.0581C57.6897 47.0581 58.4488 47.6374 58.9102 48.1424C58.9251 48.1573 58.9251 48.1573 58.94 48.1722L67.141 56.3565C68.6741 57.8716 67.1559 61.0057 67.1559 61.0057Z" stroke="black" stroke-width="2" stroke-linecap="round" stroke-linejoin="round"/>
</svg>
