<svg width="33" height="33" viewBox="0 0 33 33" fill="none" xmlns="http://www.w3.org/2000/svg">
<path d="M16.8497 32.3073V9.66493M14.2147 8.30659C14.495 8.3695 14.7904 8.2924 14.9922 8.09058C15.194 7.88877 15.271 7.59328 15.2082 7.31307C14.9566 6.28538 14.0299 2.84411 13.0783 1.89249C11.8927 0.706893 9.96305 0.701956 8.78332 1.88169C7.60368 3.06133 7.60845 4.99095 8.79413 6.17663C9.76132 7.14382 13.187 8.05503 14.2147 8.30659ZM17.0922 7.31299C17.0293 7.59331 17.1064 7.88869 17.3082 8.0905C17.5101 8.29232 17.8055 8.3693 18.0857 8.30652C19.1134 8.05493 22.5547 7.12817 23.5063 6.17655C24.6919 4.99095 24.6969 3.06134 23.5171 1.88161C22.3375 0.701959 20.4079 0.706729 19.2222 1.89241C18.255 2.8596 17.3438 6.28533 17.0922 7.31299ZM2.13212 17.5898H31.0012C31.6264 17.5898 32.1333 17.0829 32.1333 16.4576V10.797C32.1333 10.1718 31.6264 9.66493 31.0012 9.66493H2.13212C1.50687 9.66493 1 10.1718 1 10.797V16.4576C1 17.0829 1.50687 17.5898 2.13212 17.5898ZM29.303 17.5898V31.1752C29.303 31.8005 28.7961 32.3073 28.1709 32.3073H4.96242C4.33717 32.3073 3.8303 31.8005 3.8303 31.1752V17.5898H29.303Z" stroke="black" stroke-linecap="round" stroke-linejoin="round"/>
</svg>
